<?xml version="1.0" ?><svg viewBox="0 0 512 512" xmlns="http://www.w3.org/2000/svg"><g id="Product_insurance"><path d="M414.28,315.8848l-.0069-.0068-.0058-.0074a20.9153,20.9153,0,0,0-9.5069-6.06L266.3,267.9609a35.2992,35.2992,0,0,0-20.584-.0014l-138.4746,41.854a20.9065,20.9065,0,0,0-9.499,6.0571l-.0059.0078-.0068.0064a20.8229,20.8229,0,0,0-5.2764,13.8462V439.8315A20.6914,20.6914,0,0,0,107.2217,459.74l138.4365,42.0435A35.3179,35.3179,0,0,0,256,503.3262a5.4924,5.4924,0,0,0,1.42-.1919c-.0117.0461-.0176.0948-.0293.1407a35.0934,35.0934,0,0,0,8.94-1.4884l138.5576-42.083a20.6894,20.6894,0,0,0,14.6572-19.8721V329.731A20.8172,20.8172,0,0,0,414.28,315.8848ZM250.5,491.7q-.8232-.19-1.6338-.4385L110.418,449.2144a9.7541,9.7541,0,0,1-6.9649-9.3829V329.731a9.7808,9.7808,0,0,1,.7393-3.7287l143.3139,43.53.5215.1585,2.4722.7509ZM256,360.6162,116.9316,318.3755l131.9746-39.8892a24.373,24.373,0,0,1,14.2061.0025l131.9648,39.8867-43.3237,13.1584h0L286.977,312.0106a3.7741,3.7741,0,0,0-2.1752-.02l-32.6548,9.2719a2.0136,2.0136,0,0,0-.0308,3.8632l60.6846,18.2393Zm152.5459,79.2153a9.7352,9.7352,0,0,1-6.877,9.3536l-138.5507,42.081q-.8013.2462-1.6182.4351V370.442l60.5923-18.4031v45.0242a3.89,3.89,0,0,0,4.92,3.7514l31.3735-8.6415a3.8866,3.8866,0,0,0,2.857-3.7514v-47.05a9.3641,9.3641,0,0,0-.0767-1.1985v-.0017l47.3794-14.39Z"/><polygon points="270.915 474.592 314.542 460.552 314.542 449.369 270.915 463.409 270.915 474.592"/><polygon points="270.915 454.119 314.542 440.079 314.542 428.896 270.915 442.936 270.915 454.119"/><path d="M242.8008,234.8339a24.8319,24.8319,0,0,0,25.6836,0c25.7705-15.5429,81.3354-60.4764,81.21-158.925A13.8491,13.8491,0,0,0,336.9893,62.05c-16.9019-1.2776-47.66-8.14-69.566-39.1944a14.39,14.39,0,0,0-23.5615,0C221.9561,53.91,191.1978,60.7725,174.2959,62.05A13.8492,13.8492,0,0,0,161.59,75.9089C161.4653,174.3575,217.03,219.291,242.8008,234.8339ZM190.9253,82.9564a108.0724,108.0724,0,0,0,59.7822-32.365,6.7719,6.7719,0,0,1,9.87,0,108.0612,108.0612,0,0,0,59.7818,32.3651,6.8332,6.8332,0,0,1,5.59,7.0835c-4.1943,76.9176-48.6489,112.0755-68.3125,123.9344a3.8253,3.8253,0,0,1-3.9863.0016c-19.6651-11.8605-64.12-47.0192-68.3145-123.9361A6.8329,6.8329,0,0,1,190.9253,82.9564Z"/><path d="M256.0371,168.7206a38.6058,38.6058,0,0,0,38.5122-36.4444H282.3677a26.4173,26.4173,0,1,1-26.3306-28.5409V91.5761a38.5723,38.5723,0,1,0,0,77.1445Z"/><path d="M245.3628,117.4846l-9.79,8.9488,14.5771,15.9482a6.6338,6.6338,0,0,0,4.8521,2.1578h.0434a6.6346,6.6346,0,0,0,4.8369-2.0941l30.9453-32.9839-9.6743-9.0762L255.1084,128.146Z"/></g></svg>