<?xml version="1.0" encoding="utf-8"?>
<!-- Svg Vector Icons : http://www.onlinewebfonts.com/icon -->
<!DOCTYPE svg PUBLIC "-//W3C//DTD SVG 1.1//EN" "http://www.w3.org/Graphics/SVG/1.1/DTD/svg11.dtd">
<svg version="1.1" xmlns="http://www.w3.org/2000/svg" xmlns:xlink="http://www.w3.org/1999/xlink" x="0px" y="0px" viewBox="0 0 256 256" enable-background="new 0 0 256 256" xml:space="preserve">
<metadata> Svg Vector Icons : http://www.onlinewebfonts.com/icon </metadata>
<g><g><g><path fill="#000000" d="M96.5,114.7c-11.9,14.2-21.6,25.8-21.7,25.9c-0.3,0.4-15.2-1.5-20.3-2.6c-6.8-1.5-15.7-4.3-19.8-6.4c-7.7-3.8-10-10.3-5.5-15c2.3-2.3,9.1-5.7,15-7.4c5.8-1.7,16.8-3.8,26.1-5.1c4.1-0.5,9.5-1.3,11.9-1.6l4.3-0.6l3.4-5.3c1.9-2.9,3.4-5.4,3.2-5.5c-0.1-0.1-3.6,0.1-7.8,0.5c-28.4,2.7-59.6,12.1-68.8,20.8c-5.5,5.1-7.6,10.9-5.9,16c1.1,3.2,5.4,7.9,10.1,11.1c7.3,4.8,20,9,38.8,12.6c3.6,0.7,6.6,1.3,6.7,1.4c0,0.1-2.3,3.2-5.2,6.8l-5.3,6.7h11.6H79l4-5l4.1-5h2.4c1.3,0,9.6,0.3,18.5,0.7c15.4,0.6,38.5,0.4,44.1-0.3l2.2-0.3l-4-5.7l-4.1-5.7h-12.3c-12.8,0-32.6-0.8-35.2-1.4l-1.5-0.3l14.7-17.6c8.1-9.7,14.8-17.6,14.9-17.6c0.1,0,11.2,13,24.6,28.7l24.3,28.8l11.3-0.4c6.2-0.1,11.3-0.4,11.4-0.5c0.1-0.1-2.2-3-5.2-6.4c-6.1-7.2-6.4-6.4,2.1-7.7c22.9-3.5,42.5-11.5,48.2-19.6c2.8-4.1,3.3-7.3,1.8-11.4c-2.7-7.3-13.3-14.5-28.3-19.5c-14.3-4.7-31.4-7.8-56.9-10.3l-3.1-0.3l4.6,6.5l4.6,6.5l2.6,0.3c1.5,0.2,6.2,0.8,10.5,1.4c25.8,3.2,41.8,8.1,45.8,14.1c2.3,3.4,0.6,8.4-4,11.7c-5.1,3.8-30.3,11.2-38.5,11.4l-3.4,0l-21.9-26.4L135.5,89h-8.7H118L96.5,114.7z"/><path fill="#000000" d="M93.9,90.5C93.7,90.7,94,91,94.6,91c0.6,0,0.9-0.2,0.7-0.5c-0.1-0.3-0.5-0.5-0.7-0.5S94,90.2,93.9,90.5z"/></g></g></g>
</svg>